<svg width="186" height="55" viewBox="0 0 186 55" fill="none" xmlns="http://www.w3.org/2000/svg">
<path d="M64.1814 34.3586L68.0756 32.1586C68.9842 34.488 70.8015 36.0409 74.0467 36.0409C77.0971 36.0409 78.2004 34.7468 78.2004 33.388C78.2004 31.5115 76.4481 30.7998 72.6188 29.6998C68.6597 28.5998 64.8305 26.9174 64.8305 22.1292C64.8305 17.3409 68.9193 14.5586 73.3327 14.5586C77.5514 14.5586 80.8614 16.6939 82.5489 20.2527L78.2653 22.7115C77.3567 20.7704 75.9288 19.4762 73.3327 19.4762C71.1909 19.4762 69.9578 20.5762 69.9578 21.9998C69.9578 23.5527 70.9313 24.3939 74.8904 25.5586C78.9793 26.8527 83.3277 28.1468 83.3277 33.3233C83.3277 38.0468 79.4336 40.9586 73.9168 40.9586C68.8544 40.9586 65.4795 38.6939 63.9867 35.1998C63.7271 34.8762 63.8569 34.488 64.1814 34.3586Z" fill="white"/>
<path d="M104.875 31.1199C104.875 36.6199 100.786 40.8258 95.8535 40.8258C93.1276 40.8258 91.1805 39.8552 89.8824 38.1082V47.6199H85.1445V22.5788C85.1445 22.1905 85.4041 21.9317 85.7936 21.9317H89.4281L89.9473 24.1317C91.2454 22.4494 93.2574 21.4141 95.9184 21.4141C100.786 21.4141 104.875 25.6199 104.875 31.1199ZM100.072 31.1199C100.072 28.0788 97.8654 26.0082 94.9448 26.0082C92.0242 26.0082 89.8175 28.0788 89.8175 31.1199C89.8175 34.1611 92.0242 36.2317 94.9448 36.2317C97.9303 36.2317 100.072 34.1611 100.072 31.1199Z" fill="white"/>
<path d="M105.979 30.9893C105.979 25.4893 110.328 21.2188 115.715 21.2188C121.167 21.2188 125.515 25.4893 125.515 30.9893C125.515 36.4893 121.167 40.7599 115.715 40.7599C110.328 40.6952 105.979 36.4893 105.979 30.9893ZM120.842 30.9893C120.842 28.0129 118.635 25.8776 115.715 25.8776C112.859 25.8776 110.588 28.0129 110.588 30.9893C110.588 33.9658 112.794 36.1011 115.715 36.1011C118.635 36.1011 120.842 33.9658 120.842 30.9893Z" fill="white"/>
<path d="M133.497 34.1012V26.4659L136.287 26.013C136.417 24.5894 136.677 23.1659 137.066 21.8718H133.497V16.6953L129.213 17.9894C128.954 18.0541 128.759 18.313 128.759 18.6365V21.8718H126.163C125.773 21.8718 125.514 22.1306 125.514 22.5188V26.4012H128.694V34.0365C128.694 39.0188 130.965 40.96 137.65 40.2482V35.913C134.925 36.1718 133.497 36.1071 133.497 34.1012Z" fill="white"/>
<path d="M139.144 27.4996C139.144 19.929 145.115 14.1055 152.578 14.1055C160.042 14.1055 166.013 19.929 166.013 27.4996C166.013 35.0055 160.042 40.8937 152.578 40.8937C145.115 40.8937 139.144 35.0055 139.144 27.4996ZM160.886 27.4996C160.886 22.5819 157.251 19.1525 152.514 19.1525C147.841 19.1525 144.141 22.5819 144.141 27.4996C144.141 32.3525 147.776 35.7819 152.514 35.7819C157.251 35.7819 160.886 32.3525 160.886 27.4996Z" fill="white"/>
<path d="M185.289 29.0494V40.3729H180.552V29.6317C180.552 27.1082 179.059 25.8141 176.917 25.8141C174.581 25.8141 172.828 27.1729 172.828 30.4082V40.3729H168.025V22.5788C168.025 22.1905 168.285 21.9317 168.674 21.9317H172.309L172.828 24.0023C173.932 22.3199 175.879 21.4141 178.345 21.4141C182.239 21.4141 185.289 24.1317 185.289 29.0494Z" fill="white"/>
<path d="M27.5432 0C12.3134 0 0 11.9706 0 27.5C0 43.0941 12.3134 55 27.5432 55C42.7729 55 55.0863 43.0294 55.0863 27.5C55.1511 11.9706 42.7729 0 27.5432 0ZM27.5432 40.7647C20.2199 40.7647 14.3224 35.0059 14.3224 27.5647C14.3224 20.0588 20.2199 14.3647 27.5432 14.3647C34.8664 14.3 40.8287 20.0588 40.8287 27.5C40.8287 35.0059 34.8664 40.7647 27.5432 40.7647Z" fill="white"/>
</svg>
